# xmcd
#
# Track frame offsets:
# 150
# 18227
# 31103
# 49333
# 77680
# 93549
# 107868
# 124057
# 155026
# 171153
# 187634
# 201610
# 220664
# 240976
# 260907
#
# Disc length: 3604 seconds
#
# Revision: 0
# Processed by: cddbd v1.4PL0 Copyright (c) Steve Scherf et al.
# Submitted via: Audion 3.0.2 (http://www.panic.com/audion/)
#
DISCID=ca0e120f
DTITLE=Various Artisis - Classic FM 91-Classic Christmas
DYEAR=1900
DGENRE=
TTITLE0=Handel Messiah -- For unto us a child is born
TTITLE1=Cornelius-The Three Kings
TTITLE2=Bruckner-Virgo Jesse Floruit
TTITLE3=Corelli-Christmas Concerto -- 3rd Movement
TTITLE4=Warlock-Bethlehem Down
TTITLE5=Mandyczewski-Stille Nacht
TTITLE6=Howells-A Spotless Rose
TTITLE7=Tchaikovsky-Nutcracker Suite -- Waltz of the Flowers
TTITLE8=JS Bach-Wachet auf, ruft uns die Stimme
TTITLE9=Tchaikovsky-The Seasons -- December (Noël)
TTITLE10=Ganrieli-O magnum mysterium
TTITLE11=JS Bach-Bereite dir, Jesu, noch itzo die Bahn
TTITLE12=Berlioz-L'Enfance du Christ -- Shepherds' Farewell
TTITLE13=Rutter-Nativity Carol
TTITLE14=Reger-In dulci jubilo
EXTD=
EXTT0=
EXTT1=
EXTT2=
EXTT3=
EXTT4=
EXTT5=
EXTT6=
EXTT7=
EXTT8=
EXTT9=
EXTT10=
EXTT11=
EXTT12=
EXTT13=
EXTT14=
PLAYORDER=
